<svg version="1.1" id="Layer_1" xmlns="http://www.w3.org/2000/svg" xmlns:xlink="http://www.w3.org/1999/xlink" x="0px" y="0px"
	 width="100%" viewBox="0 0 1235 1045" enable-background="new 0 0 1235 1045" xml:space="preserve">
<path fill="#FFFEFC" opacity="1.000000" stroke="none" 
	d="
M768.000000,1046.000000 
	C716.973145,1046.000000 665.946289,1046.000000 614.439819,1045.660889 
	C613.355469,1045.030396 612.750671,1044.738770 612.145935,1044.447144 
	C612.097290,1044.964722 612.048645,1045.482422 612.000000,1046.000000 
	C611.250000,1046.000000 610.500000,1046.000000 609.289185,1045.746826 
	C608.218872,1045.662354 607.609436,1045.831177 607.000000,1046.000000 
	C529.639771,1046.000000 452.279602,1046.000000 374.427185,1045.699707 
	C373.524445,1045.078369 373.113953,1044.757568 372.703430,1044.436768 
	C372.468964,1044.957886 372.234467,1045.478882 372.000000,1046.000000 
	C248.345795,1046.000000 124.691597,1046.000000 1.018697,1046.000000 
	C1.018697,697.714233 1.018697,349.428467 1.018697,1.071360 
	C412.577576,1.071360 824.155212,1.071360 1235.866455,1.071360 
	C1235.866455,349.209106 1235.866455,697.418274 1235.866455,1046.000000 
	C1080.973389,1046.000000 925.946411,1046.000000 770.333740,1045.784668 
	C769.165344,1045.712891 768.582642,1045.856445 768.000000,1046.000000 
M129.504013,689.624451 
	C124.132317,690.730896 118.759262,691.830750 113.389153,692.944885 
	C95.051155,696.749268 86.114090,709.612305 88.414566,728.178772 
	C89.532127,737.198303 94.323792,743.166382 102.636246,745.588135 
	C108.762108,747.372986 115.364716,748.281799 121.755730,748.285950 
	C328.052307,748.420044 534.348999,748.396362 740.645691,748.396362 
	C853.125671,748.396362 965.605835,748.457886 1078.085571,748.289978 
	C1088.023071,748.275146 1098.044678,747.291870 1107.853149,745.692078 
	C1111.910889,745.030273 1117.051147,742.493713 1119.052124,739.201172 
	C1127.839233,724.742249 1125.461914,705.362610 1108.594727,697.286011 
	C1100.603882,693.459717 1091.647217,691.650818 1083.540161,688.388672 
	C1101.883911,681.059326 1116.701416,669.616333 1126.490112,652.100159 
	C1145.380493,618.297119 1124.759033,574.639038 1086.699219,567.979614 
	C1085.076050,567.695618 1083.512939,567.068115 1082.283569,566.083191 
	C1084.387817,563.846619 1086.492065,561.610046 1089.413208,559.242554 
	C1099.175415,558.420349 1109.146484,558.573425 1118.649048,556.538757 
	C1131.664185,553.751953 1141.011719,545.523560 1144.918701,532.423279 
	C1148.709351,519.712708 1143.074341,509.946686 1134.440308,501.054413 
	C1125.854614,492.212006 1115.778442,485.620056 1105.502563,479.330078 
	C1106.910522,478.443787 1108.359863,477.616608 1109.719849,476.662048 
	C1122.304565,467.830078 1128.128296,453.967865 1123.453491,441.653320 
	C1118.536865,428.702301 1109.029785,420.658600 1094.928589,418.949707 
	C1090.311401,418.390198 1085.624023,418.197357 1080.968750,418.197388 
	C964.479675,418.198456 847.990540,418.285980 731.501465,418.280090 
	C531.019531,418.269958 330.537567,418.205597 130.055634,418.176666 
	C126.391510,418.176147 122.727776,418.366608 119.063171,418.410675 
	C109.717758,418.522980 101.976807,422.365845 95.371490,428.704437 
	C83.647751,439.954773 82.345634,456.189423 92.606209,468.775360 
	C95.908073,472.825592 100.471085,475.847656 104.028885,479.874847 
	C101.020744,481.614594 97.816353,483.089935 95.044113,485.147522 
	C88.699707,489.856384 81.741386,494.102570 76.512215,499.876801 
	C64.054535,513.633057 63.341969,531.160034 74.022232,543.902222 
	C80.418175,551.532959 88.870224,556.450317 98.665619,557.822876 
	C107.657547,559.082886 116.843872,558.955505 125.977814,560.166016 
	C125.702362,566.557312 131.734344,567.015076 134.193512,570.054138 
	C130.035095,570.016113 125.845848,569.650024 121.727386,570.037048 
	C117.999451,570.387329 113.748474,570.618774 110.762932,572.524109 
	C93.391907,583.610046 79.073631,596.825745 76.221268,619.167114 
	C72.686951,646.850037 87.418800,673.958313 112.978561,684.060547 
	C118.515228,686.248901 124.415871,687.516357 129.504013,689.624451 
M798.026367,39.337349 
	C796.232483,40.215168 794.458984,41.137730 792.641724,41.964130 
	C766.791199,53.719749 747.119080,72.326141 732.645447,96.527824 
	C726.920776,106.100044 721.995728,116.148560 716.331726,125.759216 
	C685.464294,178.133972 654.523071,230.465454 623.475586,282.733612 
	C620.007202,288.572510 615.909668,294.075043 611.732056,299.444183 
	C607.921570,304.341492 603.407227,304.522522 598.971985,300.034393 
	C596.309143,297.339783 593.925110,294.244476 591.969604,290.995911 
	C576.762573,265.733154 561.752747,240.351761 546.562378,215.078918 
	C520.728210,172.097443 495.171387,128.942566 468.761749,86.316689 
	C456.323456,66.240898 438.357483,51.801140 416.915588,41.575829 
	C395.527679,31.376293 372.651306,28.137104 349.507935,27.336000 
	C331.429352,26.710213 313.238922,27.849979 295.160400,29.102848 
	C277.329620,30.338549 259.931763,34.084206 243.704453,42.080570 
	C208.091202,59.629795 185.639236,88.974525 169.998337,124.390709 
	C158.856613,149.619278 154.531860,176.605011 149.916595,203.491425 
	C142.317078,247.762817 134.742630,292.039246 127.413322,336.355865 
	C125.462021,348.154388 123.947876,360.073730 123.146622,371.998962 
	C122.478615,381.941040 127.809494,388.107330 137.598099,389.906799 
	C142.473389,390.803070 147.531189,391.006073 152.506989,391.011597 
	C236.328476,391.104706 320.150055,391.146851 403.971588,391.141785 
	C619.275391,391.128754 834.579163,391.101746 1049.882935,391.004120 
	C1058.851807,391.000061 1067.910767,390.874298 1076.763916,389.634583 
	C1085.700928,388.383057 1090.000122,382.744812 1090.278076,373.707520 
	C1090.420654,369.073120 1090.217285,364.349060 1089.473999,359.778778 
	C1083.093628,320.548859 1076.768188,281.307739 1069.987061,242.146042 
	C1065.393677,215.619492 1060.772949,189.064270 1054.933350,162.795563 
	C1047.899658,131.155731 1034.173828,102.437271 1013.159790,77.496346 
	C990.680054,50.815754 962.369934,33.808838 927.601196,29.897968 
	C907.664795,27.655481 887.383911,28.414434 867.254944,27.962446 
	C843.746094,27.434565 820.733459,30.137049 798.026367,39.337349 
M1074.550415,936.025391 
	C1093.977783,914.379150 1108.125366,889.757446 1116.185059,861.754700 
	C1121.641724,842.796021 1124.456665,823.380920 1125.174927,803.702271 
	C1125.563110,793.066284 1120.912964,786.034546 1110.814575,782.837158 
	C1103.950195,780.663818 1096.578247,779.006897 1089.428101,778.987000 
	C998.466736,778.734680 907.503845,778.695923 816.543152,779.055298 
	C809.179016,779.084351 801.672607,781.971497 794.520935,784.385559 
	C789.002319,786.248291 785.728943,790.823181 784.984741,796.820251 
	C784.350464,801.931274 783.294617,807.050293 783.279053,812.168396 
	C783.141968,857.314575 783.005676,902.462646 783.294312,947.607361 
	C783.397766,963.776550 789.431152,977.385559 805.888245,982.851440 
	C814.240112,985.625244 823.457703,986.633484 832.323425,986.854126 
	C854.800720,987.413452 877.304504,987.357239 899.789856,987.023071 
	C923.584534,986.669434 947.467041,986.823059 971.138245,984.765625 
	C1011.065430,981.295471 1046.095459,966.153442 1074.550415,936.025391 
M140.109528,937.376282 
	C142.896210,940.001099 145.634979,942.679016 148.477020,945.242493 
	C174.459290,968.677307 205.051163,981.786316 239.741013,985.024231 
	C252.477676,986.213013 265.352173,986.221863 278.164734,986.244873 
	C317.308289,986.315002 356.457611,986.468933 395.593140,985.854675 
	C408.666748,985.649536 418.990051,978.654175 424.057343,966.373169 
	C426.850891,959.602905 428.637970,951.907043 428.709412,944.607239 
	C429.151367,899.451599 429.146088,854.288513 428.788666,809.131897 
	C428.744873,803.599121 426.647858,797.561401 423.875366,792.682190 
	C418.473419,783.175659 408.828583,779.499084 398.510437,779.155090 
	C379.715637,778.528381 360.890564,778.728333 342.078125,778.728333 
	C268.252777,778.728271 194.427444,778.782349 120.602119,778.828796 
	C117.437172,778.830750 114.268898,778.885986 111.107994,779.037720 
	C95.089890,779.806458 86.115662,789.102051 87.149132,805.114624 
	C87.907845,816.870300 89.336845,828.666016 91.583359,840.226990 
	C98.688705,876.792358 114.085220,909.384583 140.109528,937.376282 
M93.671661,183.178543 
	C126.394516,154.548325 141.102478,118.708290 135.751816,75.393333 
	C133.407532,56.415813 124.095871,40.996582 108.415672,29.512852 
	C82.595665,10.602996 38.852882,16.864113 18.215694,44.167858 
	C-2.191169,71.166878 2.826248,105.495026 30.751825,123.996750 
	C38.028816,128.818024 46.436466,132.011795 54.513439,135.518631 
	C59.840786,137.831619 61.977188,141.463409 62.062721,147.132553 
	C62.250633,159.587051 56.768101,169.180450 47.831554,177.261108 
	C44.253040,180.496887 40.631924,183.721512 37.378582,187.270554 
	C34.307861,190.620392 33.969212,194.840347 35.503082,198.998062 
	C37.095486,203.314468 40.882351,204.882584 45.066742,204.956802 
	C49.191948,205.029968 53.463463,204.971466 57.437004,204.007294 
	C71.236427,200.658875 82.273186,192.263779 93.671661,183.178543 
z"/>
<path fill="#D6D6D5" opacity="1.000000" stroke="none" 
	d="
M372.333313,1046.000000 
	C372.234467,1045.478882 372.468964,1044.957886 372.703430,1044.436768 
	C373.113953,1044.757568 373.524445,1045.078369 373.967468,1045.699707 
	C373.555542,1046.000000 373.111115,1046.000000 372.333313,1046.000000 
z"/>
<path fill="#B1B1B1" opacity="1.000000" stroke="none" 
	d="
M607.333313,1046.000000 
	C607.609436,1045.831177 608.218872,1045.662354 608.914185,1045.746826 
	C608.555542,1046.000000 608.111084,1046.000000 607.333313,1046.000000 
z"/>
<path fill="#B1B1B1" opacity="1.000000" stroke="none" 
	d="
M612.333313,1046.000000 
	C612.048645,1045.482422 612.097290,1044.964722 612.145935,1044.447144 
	C612.750671,1044.738770 613.355469,1045.030396 613.980103,1045.660889 
	C613.555542,1046.000000 613.111084,1046.000000 612.333313,1046.000000 
z"/>
<path fill="#9E9E9E" opacity="1.000000" stroke="none" 
	d="
M768.333313,1046.000000 
	C768.582642,1045.856445 769.165344,1045.712891 769.874023,1045.784668 
	C769.555542,1046.000000 769.111084,1046.000000 768.333313,1046.000000 
z"/>
<path fill="#F6B62E" opacity="1.000000" stroke="none" 
	d="
M798.384705,39.199913 
	C820.733459,30.137049 843.746094,27.434565 867.254944,27.962446 
	C887.383911,28.414434 907.664795,27.655481 927.601196,29.897968 
	C962.369934,33.808838 990.680054,50.815754 1013.159790,77.496346 
	C1034.173828,102.437271 1047.899658,131.155731 1054.933350,162.795563 
	C1060.772949,189.064270 1065.393677,215.619492 1069.987061,242.146042 
	C1076.768188,281.307739 1083.093628,320.548859 1089.473999,359.778778 
	C1090.217285,364.349060 1090.420654,369.073120 1090.278076,373.707520 
	C1090.000122,382.744812 1085.700928,388.383057 1076.763916,389.634583 
	C1067.910767,390.874298 1058.851807,391.000061 1049.882935,391.004120 
	C834.579163,391.101746 619.275391,391.128754 403.971588,391.141785 
	C320.150055,391.146851 236.328476,391.104706 152.506989,391.011597 
	C147.531189,391.006073 142.473389,390.803070 137.598099,389.906799 
	C127.809494,388.107330 122.478615,381.941040 123.146622,371.998962 
	C123.947876,360.073730 125.462021,348.154388 127.413322,336.355865 
	C134.742630,292.039246 142.317078,247.762817 149.916595,203.491425 
	C154.531860,176.605011 158.856613,149.619278 169.998337,124.390709 
	C185.639236,88.974525 208.091202,59.629795 243.704453,42.080570 
	C259.931763,34.084206 277.329620,30.338549 295.160400,29.102848 
	C313.238922,27.849979 331.429352,26.710213 349.507935,27.336000 
	C372.651306,28.137104 395.527679,31.376293 416.915588,41.575829 
	C438.357483,51.801140 456.323456,66.240898 468.761749,86.316689 
	C495.171387,128.942566 520.728210,172.097443 546.562378,215.078918 
	C561.752747,240.351761 576.762573,265.733154 591.969604,290.995911 
	C593.925110,294.244476 596.309143,297.339783 598.971985,300.034393 
	C603.407227,304.522522 607.921570,304.341492 611.732056,299.444183 
	C615.909668,294.075043 620.007202,288.572510 623.475586,282.733612 
	C654.523071,230.465454 685.464294,178.133972 716.331726,125.759216 
	C721.995728,116.148560 726.920776,106.100044 732.645447,96.527824 
	C747.119080,72.326141 766.791199,53.719749 792.641724,41.964130 
	C794.458984,41.137730 796.232483,40.215168 798.384705,39.199913 
z"/>
<path fill="#F5B52E" opacity="1.000000" stroke="none" 
	d="
M1088.596313,559.373413 
	C1086.492065,561.610046 1084.387817,563.846619 1081.659180,566.439941 
	C1061.904053,567.543213 1042.761963,568.081299 1023.648499,569.137512 
	C1015.886841,569.566528 1007.928772,570.219177 1000.510559,572.343201 
	C981.650024,577.743713 964.770569,592.120239 965.845276,615.884888 
	C966.092163,621.344238 965.502258,626.859253 965.053650,632.328735 
	C963.820679,647.361145 955.045044,657.971985 940.711731,661.655823 
	C931.010010,664.149170 921.188904,664.023621 911.534607,661.554016 
	C897.849609,658.053284 886.064026,649.168823 885.584839,631.555420 
	C885.450439,626.617859 884.634583,621.605652 883.401794,616.815430 
	C881.947937,611.166260 877.812500,607.816345 872.053589,608.248962 
	C866.342651,608.677979 860.526672,609.878845 855.120544,611.777283 
	C840.370544,616.956665 825.939331,623.089172 810.126526,624.519958 
	C791.891724,626.169861 774.635498,623.778992 759.105225,613.149292 
	C751.149109,607.703735 743.126221,602.302063 734.784851,597.484314 
	C717.398132,587.442139 698.087769,586.383728 678.640747,586.337646 
	C634.159119,586.232300 589.677551,586.115173 545.195923,586.034241 
	C537.699890,586.020630 530.192688,585.931946 522.709656,586.282837 
	C507.256989,587.007446 500.676727,592.372437 497.167969,607.258240 
	C495.415131,614.694580 494.503754,622.326843 492.834961,629.786133 
	C491.234863,636.938110 489.312866,644.108154 483.085083,648.918152 
	C468.064972,660.519043 445.102142,661.108032 428.990417,650.357910 
	C428.031403,649.717896 427.232025,648.837769 426.362091,648.065186 
	C418.867126,641.409058 416.344788,632.127197 413.370361,623.137878 
	C411.204926,616.593445 407.489410,611.878845 400.281433,611.091553 
	C392.675232,610.260742 386.121826,612.646301 382.653442,619.715027 
	C380.053650,625.013489 378.130951,630.803101 376.910004,636.585815 
	C374.446014,648.255981 374.508606,660.561707 368.418701,671.283752 
	C364.820465,677.618896 360.645355,683.626465 356.373230,689.835571 
	C354.178589,690.643066 352.344513,691.406555 350.501434,692.147705 
	C336.605042,697.735962 322.240692,701.306335 307.370789,697.860474 
	C298.770233,695.867493 290.630035,691.887817 282.169281,688.483887 
	C280.443817,686.270142 278.851654,684.357422 277.216339,682.482361 
	C268.922943,672.972900 264.353790,662.023987 264.079193,649.310242 
	C263.863464,639.320190 263.336853,629.336975 263.119843,619.346924 
	C262.641205,597.316223 247.592743,577.945679 225.821823,573.626648 
	C213.995361,571.280518 201.704559,570.855347 189.593933,570.459778 
	C171.462463,569.867615 153.305237,570.064453 135.158966,569.925659 
	C131.734344,567.015076 125.702362,566.557312 126.251976,559.585510 
	C135.632904,552.045959 144.490158,544.727600 153.894135,538.196472 
	C180.060745,520.023621 209.333267,516.398499 239.326050,524.061646 
	C259.187714,529.136230 278.340393,537.374451 297.352539,545.295654 
	C327.117828,557.696960 356.986816,559.919983 387.139496,547.907898 
	C399.170380,543.115112 410.498108,536.571411 422.203278,530.944031 
	C445.467651,519.759338 469.679901,513.074341 495.846100,514.851685 
	C515.452881,516.183533 533.710510,521.593872 550.789001,531.236267 
	C562.813721,538.025330 574.550232,545.459656 587.039124,551.263916 
	C613.109131,563.380188 640.684082,562.760376 668.281799,558.324463 
	C682.922791,555.971130 696.050049,549.028442 708.825134,541.871094 
	C730.314331,529.831665 752.874146,521.640686 777.607056,519.725891 
	C799.435852,518.035889 820.460083,520.938171 840.315796,530.275879 
	C851.895935,535.721680 862.910400,542.384888 874.551514,547.682983 
	C891.697876,555.486572 909.651184,557.092896 928.215332,553.273926 
	C945.434143,549.731750 960.645264,541.385376 976.380005,534.233215 
	C998.620789,524.123718 1021.544067,520.376282 1045.278198,528.065918 
	C1062.982788,533.802002 1074.466553,548.496765 1088.596313,559.373413 
M294.553497,626.304993 
	C294.717926,629.953125 294.928864,633.599976 295.032562,637.249878 
	C295.120300,640.338257 296.404785,642.997986 299.611908,642.180847 
	C301.217987,641.771729 302.984222,638.765503 303.194366,636.777039 
	C303.625916,632.693848 303.009857,628.506104 302.917694,624.359314 
	C302.846252,621.145874 303.141022,617.328613 298.674164,617.368225 
	C294.226807,617.407532 294.484283,621.217346 294.522400,624.436951 
	C294.526337,624.769165 294.526489,625.101379 294.553497,626.304993 
z"/>
<path fill="#64A33B" opacity="1.000000" stroke="none" 
	d="
M1089.004761,559.307983 
	C1074.466553,548.496765 1062.982788,533.802002 1045.278198,528.065918 
	C1021.544067,520.376282 998.620789,524.123718 976.380005,534.233215 
	C960.645264,541.385376 945.434143,549.731750 928.215332,553.273926 
	C909.651184,557.092896 891.697876,555.486572 874.551514,547.682983 
	C862.910400,542.384888 851.895935,535.721680 840.315796,530.275879 
	C820.460083,520.938171 799.435852,518.035889 777.607056,519.725891 
	C752.874146,521.640686 730.314331,529.831665 708.825134,541.871094 
	C696.050049,549.028442 682.922791,555.971130 668.281799,558.324463 
	C640.684082,562.760376 613.109131,563.380188 587.039124,551.263916 
	C574.550232,545.459656 562.813721,538.025330 550.789001,531.236267 
	C533.710510,521.593872 515.452881,516.183533 495.846100,514.851685 
	C469.679901,513.074341 445.467651,519.759338 422.203278,530.944031 
	C410.498108,536.571411 399.170380,543.115112 387.139496,547.907898 
	C356.986816,559.919983 327.117828,557.696960 297.352539,545.295654 
	C278.340393,537.374451 259.187714,529.136230 239.326050,524.061646 
	C209.333267,516.398499 180.060745,520.023621 153.894135,538.196472 
	C144.490158,544.727600 135.632904,552.045959 126.235344,559.222168 
	C116.843872,558.955505 107.657547,559.082886 98.665619,557.822876 
	C88.870224,556.450317 80.418175,551.532959 74.022232,543.902222 
	C63.341969,531.160034 64.054535,513.633057 76.512215,499.876801 
	C81.741386,494.102570 88.699707,489.856384 95.044113,485.147522 
	C97.816353,483.089935 101.020744,481.614594 104.665749,479.565613 
	C144.253693,478.555084 183.204422,477.270874 222.155930,477.246002 
	C497.697327,477.070068 773.238953,477.100677 1048.780273,477.266541 
	C1067.544556,477.277832 1086.307861,478.922852 1105.071533,479.808044 
	C1115.778442,485.620056 1125.854614,492.212006 1134.440308,501.054413 
	C1143.074341,509.946686 1148.709351,519.712708 1144.918701,532.423279 
	C1141.011719,545.523560 1131.664185,553.751953 1118.649048,556.538757 
	C1109.146484,558.573425 1099.175415,558.420349 1089.004761,559.307983 
z"/>
<path fill="#F6B62E" opacity="1.000000" stroke="none" 
	d="
M1074.299316,936.278076 
	C1046.095459,966.153442 1011.065430,981.295471 971.138245,984.765625 
	C947.467041,986.823059 923.584534,986.669434 899.789856,987.023071 
	C877.304504,987.357239 854.800720,987.413452 832.323425,986.854126 
	C823.457703,986.633484 814.240112,985.625244 805.888245,982.851440 
	C789.431152,977.385559 783.397766,963.776550 783.294312,947.607361 
	C783.005676,902.462646 783.141968,857.314575 783.279053,812.168396 
	C783.294617,807.050293 784.350464,801.931274 784.984741,796.820251 
	C785.728943,790.823181 789.002319,786.248291 794.520935,784.385559 
	C801.672607,781.971497 809.179016,779.084351 816.543152,779.055298 
	C907.503845,778.695923 998.466736,778.734680 1089.428101,778.987000 
	C1096.578247,779.006897 1103.950195,780.663818 1110.814575,782.837158 
	C1120.912964,786.034546 1125.563110,793.066284 1125.174927,803.702271 
	C1124.456665,823.380920 1121.641724,842.796021 1116.185059,861.754700 
	C1108.125366,889.757446 1093.977783,914.379150 1074.299316,936.278076 
z"/>
<path fill="#F6B62F" opacity="1.000000" stroke="none" 
	d="
M139.865036,937.118835 
	C114.085220,909.384583 98.688705,876.792358 91.583359,840.226990 
	C89.336845,828.666016 87.907845,816.870300 87.149132,805.114624 
	C86.115662,789.102051 95.089890,779.806458 111.107994,779.037720 
	C114.268898,778.885986 117.437172,778.830750 120.602119,778.828796 
	C194.427444,778.782349 268.252777,778.728271 342.078125,778.728333 
	C360.890564,778.728333 379.715637,778.528381 398.510437,779.155090 
	C408.828583,779.499084 418.473419,783.175659 423.875366,792.682190 
	C426.647858,797.561401 428.744873,803.599121 428.788666,809.131897 
	C429.146088,854.288513 429.151367,899.451599 428.709412,944.607239 
	C428.637970,951.907043 426.850891,959.602905 424.057343,966.373169 
	C418.990051,978.654175 408.666748,985.649536 395.593140,985.854675 
	C356.457611,986.468933 317.308289,986.315002 278.164734,986.244873 
	C265.352173,986.221863 252.477676,986.213013 239.741013,985.024231 
	C205.051163,981.786316 174.459290,968.677307 148.477020,945.242493 
	C145.634979,942.679016 142.896210,940.001099 139.865036,937.118835 
z"/>
<path fill="#5B2319" opacity="1.000000" stroke="none" 
	d="
M356.729675,689.781311 
	C360.645355,683.626465 364.820465,677.618896 368.418701,671.283752 
	C374.508606,660.561707 374.446014,648.255981 376.910004,636.585815 
	C378.130951,630.803101 380.053650,625.013489 382.653442,619.715027 
	C386.121826,612.646301 392.675232,610.260742 400.281433,611.091553 
	C407.489410,611.878845 411.204926,616.593445 413.370361,623.137878 
	C416.344788,632.127197 418.867126,641.409058 426.362091,648.065186 
	C427.232025,648.837769 428.031403,649.717896 428.990417,650.357910 
	C445.102142,661.108032 468.064972,660.519043 483.085083,648.918152 
	C489.312866,644.108154 491.234863,636.938110 492.834961,629.786133 
	C494.503754,622.326843 495.415131,614.694580 497.167969,607.258240 
	C500.676727,592.372437 507.256989,587.007446 522.709656,586.282837 
	C530.192688,585.931946 537.699890,586.020630 545.195923,586.034241 
	C589.677551,586.115173 634.159119,586.232300 678.640747,586.337646 
	C698.087769,586.383728 717.398132,587.442139 734.784851,597.484314 
	C743.126221,602.302063 751.149109,607.703735 759.105225,613.149292 
	C774.635498,623.778992 791.891724,626.169861 810.126526,624.519958 
	C825.939331,623.089172 840.370544,616.956665 855.120544,611.777283 
	C860.526672,609.878845 866.342651,608.677979 872.053589,608.248962 
	C877.812500,607.816345 881.947937,611.166260 883.401794,616.815430 
	C884.634583,621.605652 885.450439,626.617859 885.584839,631.555420 
	C886.064026,649.168823 897.849609,658.053284 911.534607,661.554016 
	C921.188904,664.023621 931.010010,664.149170 940.711731,661.655823 
	C955.045044,657.971985 963.820679,647.361145 965.053650,632.328735 
	C965.502258,626.859253 966.092163,621.344238 965.845276,615.884888 
	C964.770569,592.120239 981.650024,577.743713 1000.510559,572.343201 
	C1007.928772,570.219177 1015.886841,569.566528 1023.648499,569.137512 
	C1042.761963,568.081299 1061.904053,567.543213 1081.478271,566.698730 
	C1083.512939,567.068115 1085.076050,567.695618 1086.699219,567.979614 
	C1124.759033,574.639038 1145.380493,618.297119 1126.490112,652.100159 
	C1116.701416,669.616333 1101.883911,681.059326 1082.876831,688.672241 
	C1076.409424,689.298035 1070.605225,689.938477 1064.801147,689.939331 
	C830.774170,689.973511 596.747253,689.950378 362.720306,689.927490 
	C360.723419,689.927246 358.726562,689.832092 356.729675,689.781311 
z"/>
<path fill="#E72424" opacity="1.000000" stroke="none" 
	d="
M1105.287109,479.569061 
	C1086.307861,478.922852 1067.544556,477.277832 1048.780273,477.266541 
	C773.238953,477.100677 497.697327,477.070068 222.155930,477.246002 
	C183.204422,477.270874 144.253693,478.555084 104.879883,479.298218 
	C100.471085,475.847656 95.908073,472.825592 92.606209,468.775360 
	C82.345634,456.189423 83.647751,439.954773 95.371490,428.704437 
	C101.976807,422.365845 109.717758,418.522980 119.063171,418.410675 
	C122.727776,418.366608 126.391510,418.176147 130.055634,418.176666 
	C330.537567,418.205597 531.019531,418.269958 731.501465,418.280090 
	C847.990540,418.285980 964.479675,418.198456 1080.968750,418.197388 
	C1085.624023,418.197357 1090.311401,418.390198 1094.928589,418.949707 
	C1109.029785,420.658600 1118.536865,428.702301 1123.453491,441.653320 
	C1128.128296,453.967865 1122.304565,467.830078 1109.719849,476.662048 
	C1108.359863,477.616608 1106.910522,478.443787 1105.287109,479.569061 
z"/>
<path fill="#E72222" opacity="1.000000" stroke="none" 
	d="
M356.373230,689.835571 
	C358.726562,689.832092 360.723419,689.927246 362.720306,689.927490 
	C596.747253,689.950378 830.774170,689.973511 1064.801147,689.939331 
	C1070.605225,689.938477 1076.409424,689.298035 1082.670776,688.941895 
	C1091.647217,691.650818 1100.603882,693.459717 1108.594727,697.286011 
	C1125.461914,705.362610 1127.839233,724.742249 1119.052124,739.201172 
	C1117.051147,742.493713 1111.910889,745.030273 1107.853149,745.692078 
	C1098.044678,747.291870 1088.023071,748.275146 1078.085571,748.289978 
	C965.605835,748.457886 853.125671,748.396362 740.645691,748.396362 
	C534.348999,748.396362 328.052307,748.420044 121.755730,748.285950 
	C115.364716,748.281799 108.762108,747.372986 102.636246,745.588135 
	C94.323792,743.166382 89.532127,737.198303 88.414566,728.178772 
	C86.114090,709.612305 95.051155,696.749268 113.389153,692.944885 
	C118.759262,691.830750 124.132317,690.730896 130.276367,689.376953 
	C181.460037,689.020447 231.871353,688.911316 282.282654,688.802246 
	C290.630035,691.887817 298.770233,695.867493 307.370789,697.860474 
	C322.240692,701.306335 336.605042,697.735962 350.501434,692.147705 
	C352.344513,691.406555 354.178589,690.643066 356.373230,689.835571 
z"/>
<path fill="#5B2319" opacity="1.000000" stroke="none" 
	d="
M282.169281,688.483887 
	C231.871353,688.911316 181.460037,689.020447 130.598801,689.168701 
	C124.415871,687.516357 118.515228,686.248901 112.978561,684.060547 
	C87.418800,673.958313 72.686951,646.850037 76.221268,619.167114 
	C79.073631,596.825745 93.391907,583.610046 110.762932,572.524109 
	C113.748474,570.618774 117.999451,570.387329 121.727386,570.037048 
	C125.845848,569.650024 130.035095,570.016113 134.676239,569.989868 
	C153.305237,570.064453 171.462463,569.867615 189.593933,570.459778 
	C201.704559,570.855347 213.995361,571.280518 225.821823,573.626648 
	C247.592743,577.945679 262.641205,597.316223 263.119843,619.346924 
	C263.336853,629.336975 263.863464,639.320190 264.079193,649.310242 
	C264.353790,662.023987 268.922943,672.972900 277.216339,682.482361 
	C278.851654,684.357422 280.443817,686.270142 282.169281,688.483887 
z"/>
<path fill="#F6B62F" opacity="1.000000" stroke="none" 
	d="
M93.390152,183.394577 
	C82.273186,192.263779 71.236427,200.658875 57.437004,204.007294 
	C53.463463,204.971466 49.191948,205.029968 45.066742,204.956802 
	C40.882351,204.882584 37.095486,203.314468 35.503082,198.998062 
	C33.969212,194.840347 34.307861,190.620392 37.378582,187.270554 
	C40.631924,183.721512 44.253040,180.496887 47.831554,177.261108 
	C56.768101,169.180450 62.250633,159.587051 62.062721,147.132553 
	C61.977188,141.463409 59.840786,137.831619 54.513439,135.518631 
	C46.436466,132.011795 38.028816,128.818024 30.751825,123.996750 
	C2.826248,105.495026 -2.191169,71.166878 18.215694,44.167858 
	C38.852882,16.864113 82.595665,10.602996 108.415672,29.512852 
	C124.095871,40.996582 133.407532,56.415813 135.751816,75.393333 
	C141.102478,118.708290 126.394516,154.548325 93.390152,183.394577 
z"/>
<path fill="#FEFAEF" opacity="1.000000" stroke="none" 
	d="
M294.540955,625.869263 
	C294.526489,625.101379 294.526337,624.769165 294.522400,624.436951 
	C294.484283,621.217346 294.226807,617.407532 298.674164,617.368225 
	C303.141022,617.328613 302.846252,621.145874 302.917694,624.359314 
	C303.009857,628.506104 303.625916,632.693848 303.194366,636.777039 
	C302.984222,638.765503 301.217987,641.771729 299.611908,642.180847 
	C296.404785,642.997986 295.120300,640.338257 295.032562,637.249878 
	C294.928864,633.599976 294.717926,629.953125 294.540955,625.869263 
z"/>
</svg>